# xmcd
#
# Track frame offsets:
#	150
#	29853
#	66101
#	101454
#	145757
#	193629
#
# Disc length: 2822 seconds
#
# Revision: 1
# Processed by: cddbd v1.5.2PL0 Copyright (c) Steve Scherf et al.
# Submitted via: audiograbber 1.83.01
#
DISCID=530b0406
DTITLE=Grateful Dead - 82-04-18 Hartford Civic Centre, Hartford CT
DYEAR=1900
DGENRE=
TTITLE0=Cold Rain and Snow
TTITLE1=Samson and Delilah
TTITLE2=Ship Of Fools
TTITLE3=Playing In The Band
TTITLE4=Eyes Of The World
TTITLE5=Drums
EXTD=
EXTT0=
EXTT1=
EXTT2=
EXTT3=
EXTT4=
EXTT5=
PLAYORDER=
